<?xml version="1.0" encoding="UTF-8"?>
<!DOCTYPE svg PUBLIC "-//W3C//DTD SVG 1.1//EN" "http://www.w3.org/Graphics/SVG/1.1/DTD/svg11.dtd">
<svg xmlns="http://www.w3.org/2000/svg" version="1.1" width="2362px" height="1156px" style="shape-rendering:geometricPrecision; text-rendering:geometricPrecision; image-rendering:optimizeQuality; fill-rule:evenodd; clip-rule:evenodd" xmlns:xlink="http://www.w3.org/1999/xlink">
<g><path style="opacity:0.996" fill="#0086ca" d="M 452.5,138.5 C 442.346,156.757 437.846,176.424 439,197.5C 444.817,251.645 472.984,288.812 523.5,309C 544.703,316.509 566.369,318.342 588.5,314.5C 594.885,322.217 600.885,330.217 606.5,338.5C 538.346,352.066 482.846,331.732 440,277.5C 409.815,233.69 403.648,186.69 421.5,136.5C 432.291,129.574 442.625,130.24 452.5,138.5 Z"/></g>
<g><path style="opacity:0.995" fill="#007fc4" d="M 421.5,136.5 C 403.648,186.69 409.815,233.69 440,277.5C 482.846,331.732 538.346,352.066 606.5,338.5C 613.851,347.19 620.851,356.19 627.5,365.5C 550.566,386.975 484.066,369.309 428,312.5C 396.894,277.929 380.394,237.263 378.5,190.5C 388.783,176.377 399.283,162.377 410,148.5C 413.336,143.998 417.169,139.998 421.5,136.5 Z"/></g>
<g><path style="opacity:0.996" fill="#008ace" d="M 452.5,138.5 C 453.833,139.167 454.833,140.167 455.5,141.5C 432.649,198.928 444.982,247.428 492.5,287C 520.363,306.883 551.363,314.716 585.5,310.5C 586.5,311.833 587.5,313.167 588.5,314.5C 566.369,318.342 544.703,316.509 523.5,309C 472.984,288.812 444.817,251.645 439,197.5C 437.846,176.424 442.346,156.757 452.5,138.5 Z"/></g>
<g><path style="opacity:0.994" fill="#008dd0" d="M 455.5,141.5 C 460.186,146.858 464.519,152.525 468.5,158.5C 454.366,199.967 463.033,236.134 494.5,267C 516.808,286.382 542.808,295.549 572.5,294.5C 576.823,299.794 581.156,305.127 585.5,310.5C 551.363,314.716 520.363,306.883 492.5,287C 444.982,247.428 432.649,198.928 455.5,141.5 Z"/></g>
<g><path style="opacity:0.993" fill="#0090d3" d="M 468.5,158.5 C 470.547,160.55 472.214,162.883 473.5,165.5C 462.682,207.546 474.349,242.046 508.5,269C 526.276,281.091 545.942,287.258 567.5,287.5C 569.547,289.55 571.214,291.883 572.5,294.5C 542.808,295.549 516.808,286.382 494.5,267C 463.033,236.134 454.366,199.967 468.5,158.5 Z"/></g>
<g><path style="opacity:0.991" fill="#0093d6" d="M 473.5,165.5 C 477.729,170.278 481.729,175.278 485.5,180.5C 481.093,214.862 493.426,241.695 522.5,261C 532.659,267.22 543.659,270.72 555.5,271.5C 559.885,276.55 563.885,281.884 567.5,287.5C 545.942,287.258 526.276,281.091 508.5,269C 474.349,242.046 462.682,207.546 473.5,165.5 Z"/></g>
<g><path style="opacity:0.988" fill="#0096d8" d="M 485.5,180.5 C 487.853,182.86 489.853,185.527 491.5,188.5C 491.308,223.461 507.308,247.627 539.5,261C 542.768,262.15 546.101,262.984 549.5,263.5C 551.5,266.167 553.5,268.833 555.5,271.5C 543.659,270.72 532.659,267.22 522.5,261C 493.426,241.695 481.093,214.862 485.5,180.5 Z"/></g>
<g><path style="opacity:0.966" fill="#0099dc" d="M 491.5,188.5 C 510.802,213.476 530.136,238.476 549.5,263.5C 546.101,262.984 542.768,262.15 539.5,261C 507.308,247.627 491.308,223.461 491.5,188.5 Z"/></g>
<g><path style="opacity:0.995" fill="#0079be" d="M 378.5,190.5 C 380.394,237.263 396.894,277.929 428,312.5C 484.066,369.309 550.566,386.975 627.5,365.5C 634.186,373.525 640.519,381.859 646.5,390.5C 580.418,413.523 517.085,407.523 456.5,372.5C 451.963,367.066 446.297,363.4 439.5,361.5C 393.627,326.8 364.627,281.134 352.5,224.5C 360.814,212.858 369.481,201.525 378.5,190.5 Z"/></g>
<g><path style="opacity:0.989" fill="#0075bc" d="M 352.5,224.5 C 364.627,281.134 393.627,326.8 439.5,361.5C 438.167,361.5 436.833,361.5 435.5,361.5C 391.029,327.259 362.696,282.592 350.5,227.5C 350.427,225.973 351.094,224.973 352.5,224.5 Z"/></g>
<g><path style="opacity:0.992" fill="#0073b8" d="M 350.5,227.5 C 362.696,282.592 391.029,327.259 435.5,361.5C 429.886,361.649 424.886,363.482 420.5,367C 417.031,370.812 413.698,374.645 410.5,378.5C 371.46,346.1 343.793,305.766 327.5,257.5C 334.407,246.925 342.074,236.925 350.5,227.5 Z"/></g>
<g><path style="opacity:0.995" fill="#006fb6" d="M 327.5,257.5 C 343.793,305.766 371.46,346.1 410.5,378.5C 409.833,379.5 409.167,380.5 408.5,381.5C 368.407,350.056 340.407,310.056 324.5,261.5C 324.738,259.596 325.738,258.262 327.5,257.5 Z"/></g>
<g><path style="opacity:0.992" fill="#006cb3" d="M 324.5,261.5 C 340.407,310.056 368.407,350.056 408.5,381.5C 401.924,389.654 395.591,397.987 389.5,406.5C 349.929,375.596 320.596,336.929 301.5,290.5C 308.817,280.521 316.483,270.854 324.5,261.5 Z"/></g>
<g><path style="opacity:0.992" fill="#0068af" d="M 301.5,290.5 C 320.596,336.929 349.929,375.596 389.5,406.5C 385.47,411.524 381.47,416.524 377.5,421.5C 338.951,390.96 308.951,353.626 287.5,309.5C 291.925,302.98 296.592,296.647 301.5,290.5 Z"/></g>
<g><path style="opacity:0.993" fill="#0065ac" d="M 287.5,309.5 C 308.951,353.626 338.951,390.96 377.5,421.5C 370.167,431.167 362.833,440.833 355.5,450.5C 317.112,420.128 286.446,383.461 263.5,340.5C 270.786,329.586 278.786,319.252 287.5,309.5 Z"/></g>
<g><path style="opacity:0.992" fill="#0061a9" d="M 263.5,340.5 C 286.446,383.461 317.112,420.128 355.5,450.5C 351.729,455.722 347.729,460.722 343.5,465.5C 305.484,435.416 274.484,399.416 250.5,357.5C 254.481,351.525 258.814,345.858 263.5,340.5 Z"/></g>
<g><path style="opacity:0.993" fill="#005fa7" d="M 250.5,357.5 C 274.484,399.416 305.484,435.416 343.5,465.5C 338.883,473.078 333.55,480.078 327.5,486.5C 290.104,456.115 258.438,420.782 232.5,380.5C 238.27,372.613 244.27,364.946 250.5,357.5 Z"/></g>
<g><path style="opacity:0.99" fill="#0076bb" d="M 456.5,372.5 C 517.085,407.523 580.418,413.523 646.5,390.5C 647.5,390.833 648.167,391.5 648.5,392.5C 594.256,411.861 540.256,411.028 486.5,390C 478.145,386.155 469.812,382.322 461.5,378.5C 459.11,377.109 457.443,375.109 456.5,372.5 Z"/></g>
<g><path style="opacity:0.992" fill="#0073b8" d="M 461.5,378.5 C 469.812,382.322 478.145,386.155 486.5,390C 540.256,411.028 594.256,411.861 648.5,392.5C 655.076,400.654 661.409,408.987 667.5,417.5C 611.348,439.891 554.348,442.224 496.5,424.5C 484.073,409.74 472.406,394.407 461.5,378.5 Z"/></g>
<g><path style="opacity:0.992" fill="#005ba4" d="M 232.5,380.5 C 258.438,420.782 290.104,456.115 327.5,486.5C 317.9,500.429 307.567,513.762 296.5,526.5C 259.659,496.328 227.325,461.995 199.5,423.5C 210.148,408.858 221.148,394.524 232.5,380.5 Z"/></g>
<g><path style="opacity:0.984" fill="#0059ab" d="M 1109.5,413.5 C 1134.83,413.5 1160.17,413.5 1185.5,413.5C 1185.5,489.167 1185.5,564.833 1185.5,640.5C 1160.17,640.5 1134.83,640.5 1109.5,640.5C 1109.5,564.833 1109.5,489.167 1109.5,413.5 Z"/></g>
<g><path style="opacity:0.959" fill="#0059ab" d="M 1199.5,413.5 C 1224.83,413.5 1250.17,413.5 1275.5,413.5C 1275.5,429.167 1275.5,444.833 1275.5,460.5C 1250.17,460.5 1224.83,460.5 1199.5,460.5C 1199.5,444.833 1199.5,429.167 1199.5,413.5 Z"/></g>
<g><path style="opacity:0.993" fill="#006fb6" d="M 667.5,417.5 C 668.488,418.795 669.488,420.128 670.5,421.5C 614.896,444.045 558.229,447.045 500.5,430.5C 498.774,428.772 497.441,426.772 496.5,424.5C 554.348,442.224 611.348,439.891 667.5,417.5 Z"/></g>
<g><path style="opacity:0.988" fill="#a5ce38" d="M 431.5,421.5 C 440.935,420.479 449.102,423.145 456,429.5C 498.95,486.118 542.284,542.452 586,598.5C 592.893,608.99 593.226,619.656 587,630.5C 582.278,636.444 576.112,639.611 568.5,640C 480.833,640.667 393.167,640.667 305.5,640C 287.857,636.914 280.357,626.414 283,608.5C 283.725,606.051 284.725,603.717 286,601.5C 329.383,545.785 372.383,489.785 415,433.5C 419.305,427.672 424.805,423.672 431.5,421.5 Z"/></g>
<g><path style="opacity:0.992" fill="#006cb3" d="M 670.5,421.5 C 677.519,429.857 684.185,438.524 690.5,447.5C 654.214,464.626 615.881,472.959 575.5,472.5C 560.405,472.764 545.405,471.764 530.5,469.5C 520.5,456.5 510.5,443.5 500.5,430.5C 558.229,447.045 614.896,444.045 670.5,421.5 Z"/></g>
<g><path style="opacity:0.993" fill="#0058a1" d="M 199.5,423.5 C 227.325,461.995 259.659,496.328 296.5,526.5C 292.543,532.457 288.21,538.123 283.5,543.5C 245.932,513.937 213.599,479.604 186.5,440.5C 190.481,434.525 194.814,428.858 199.5,423.5 Z"/></g>
<g><path style="opacity:0.99" fill="#00549e" d="M 186.5,440.5 C 213.599,479.604 245.932,513.937 283.5,543.5C 261.594,572.953 239.428,602.286 217,631.5C 212.931,636.285 207.764,639.119 201.5,640C 160.5,640.667 119.5,640.667 78.5,640C 63.3168,635.481 56.8168,625.314 59,609.5C 60.0587,606.382 61.3921,603.382 63,600.5C 104.413,547.267 145.58,493.933 186.5,440.5 Z"/></g>
<g><path style="opacity:0.992" fill="#0068af" d="M 690.5,447.5 C 695.064,452.948 699.398,458.615 703.5,464.5C 653.909,487.062 601.909,496.062 547.5,491.5C 541.864,484.191 536.198,476.857 530.5,469.5C 545.405,471.764 560.405,472.764 575.5,472.5C 615.881,472.959 654.214,464.626 690.5,447.5 Z"/></g>
<g><path style="opacity:0.992" fill="#0065ac" d="M 703.5,464.5 C 711.155,474.461 718.822,484.461 726.5,494.5C 679.359,517.783 629.359,529.45 576.5,529.5C 566.833,516.833 557.167,504.167 547.5,491.5C 601.909,496.062 653.909,487.062 703.5,464.5 Z"/></g>
<g><path style="opacity:0.981" fill="#0059ab" d="M 896.5,473.5 C 949.168,473.333 1001.83,473.5 1054.5,474C 1078.79,477.954 1092.62,492.121 1096,516.5C 1096.5,557.832 1096.67,599.165 1096.5,640.5C 1070.83,640.5 1045.17,640.5 1019.5,640.5C 1019.67,603.498 1019.5,566.498 1019,529.5C 1016.79,523.808 1012.63,520.641 1006.5,520C 985.833,519.333 965.167,519.333 944.5,520C 937.118,521.049 932.618,525.216 931,532.5C 930.333,548.833 930.333,565.167 931,581.5C 932.618,588.784 937.118,592.951 944.5,594C 964.831,594.5 985.164,594.667 1005.5,594.5C 1005.5,609.833 1005.5,625.167 1005.5,640.5C 968.832,640.667 932.165,640.5 895.5,640C 876.792,637.296 863.958,627.129 857,609.5C 856.118,606.211 855.452,602.877 855,599.5C 854.047,569.132 854.381,538.799 856,508.5C 862.314,488.343 875.814,476.676 896.5,473.5 Z"/></g>
<g><path style="opacity:0.981" fill="#0059ab" d="M 1199.5,473.5 C 1224.83,473.5 1250.17,473.5 1275.5,473.5C 1275.5,529.167 1275.5,584.833 1275.5,640.5C 1250.17,640.5 1224.83,640.5 1199.5,640.5C 1199.5,584.833 1199.5,529.167 1199.5,473.5 Z"/></g>
<g><path style="opacity:0.983" fill="#0059ab" d="M 1330.5,473.5 C 1383.17,473.333 1435.83,473.5 1488.5,474C 1510.23,477.061 1523.73,489.228 1529,510.5C 1529.5,553.832 1529.67,597.165 1529.5,640.5C 1504.17,640.5 1478.83,640.5 1453.5,640.5C 1453.67,603.832 1453.5,567.165 1453,530.5C 1450.72,524.263 1446.22,520.763 1439.5,520C 1419.17,519.333 1398.83,519.333 1378.5,520C 1371.56,520.934 1367.06,524.767 1365,531.5C 1364.33,548.5 1364.33,565.5 1365,582.5C 1366.94,588.776 1371.11,592.61 1377.5,594C 1398.16,594.5 1418.83,594.667 1439.5,594.5C 1439.5,609.833 1439.5,625.167 1439.5,640.5C 1402.83,640.667 1366.17,640.5 1329.5,640C 1306.91,636.744 1293.41,623.911 1289,601.5C 1288.04,570.127 1288.37,538.794 1290,507.5C 1296.7,487.958 1310.2,476.625 1330.5,473.5 Z"/></g>
<g><path style="opacity:0.984" fill="#0059ab" d="M 1584.5,473.5 C 1637.17,473.333 1689.83,473.5 1742.5,474C 1765.18,476.682 1779.02,489.182 1784,511.5C 1784.5,554.499 1784.67,597.499 1784.5,640.5C 1759.17,640.5 1733.83,640.5 1708.5,640.5C 1708.67,603.832 1708.5,567.165 1708,530.5C 1706.22,526.388 1703.39,523.222 1699.5,521C 1687.71,519.888 1675.88,519.388 1664,519.5C 1653.83,519.667 1643.67,519.833 1633.5,520C 1628.1,520.389 1623.94,522.889 1621,527.5C 1619.52,565.105 1619.02,602.772 1619.5,640.5C 1594.17,640.5 1568.83,640.5 1543.5,640.5C 1543.33,597.165 1543.5,553.832 1544,510.5C 1549.45,489.217 1562.95,476.883 1584.5,473.5 Z"/></g>
<g><path style="opacity:0.982" fill="#0059ab" d="M 1798.5,473.5 C 1878.83,473.5 1959.17,473.5 2039.5,473.5C 2039.67,495.836 2039.5,518.169 2039,540.5C 2034.16,563.674 2019.99,576.841 1996.5,580C 1961.83,580.333 1927.17,580.667 1892.5,581C 1891.67,581.833 1890.83,582.667 1890,583.5C 1889.5,587.152 1889.33,590.818 1889.5,594.5C 1939.5,594.5 1989.5,594.5 2039.5,594.5C 2039.5,609.833 2039.5,625.167 2039.5,640.5C 1959.17,640.5 1878.83,640.5 1798.5,640.5C 1798.33,616.831 1798.5,593.164 1799,569.5C 1805.11,547.394 1819.61,535.561 1842.5,534C 1876.5,533.667 1910.5,533.333 1944.5,533C 1948.1,529.265 1949.43,524.765 1948.5,519.5C 1898.5,519.5 1848.5,519.5 1798.5,519.5C 1798.5,504.167 1798.5,488.833 1798.5,473.5 Z"/></g>
<g><path style="opacity:0.981" fill="#0059ab" d="M 2094.5,473.5 C 2147.17,473.333 2199.83,473.5 2252.5,474C 2276.79,477.954 2290.62,492.121 2294,516.5C 2294.5,557.832 2294.67,599.165 2294.5,640.5C 2268.83,640.5 2243.17,640.5 2217.5,640.5C 2217.67,603.498 2217.5,566.498 2217,529.5C 2214.79,523.808 2210.63,520.641 2204.5,520C 2183.83,519.333 2163.17,519.333 2142.5,520C 2135.08,521.086 2130.58,525.253 2129,532.5C 2128.06,550.22 2128.39,567.886 2130,585.5C 2132.46,590.149 2136.29,592.983 2141.5,594C 2162.16,594.5 2182.83,594.667 2203.5,594.5C 2203.5,609.833 2203.5,625.167 2203.5,640.5C 2166.83,640.667 2130.17,640.5 2093.5,640C 2070.79,636.291 2057.29,623.124 2053,600.5C 2052.05,569.799 2052.38,539.132 2054,508.5C 2060.29,488.372 2073.79,476.705 2094.5,473.5 Z"/></g>
<g><path style="opacity:0.992" fill="#0061a9" d="M 726.5,494.5 C 730.853,499.527 734.853,504.86 738.5,510.5C 692.511,534.249 643.511,546.915 591.5,548.5C 586.27,542.387 581.27,536.054 576.5,529.5C 629.359,529.45 679.359,517.783 726.5,494.5 Z"/></g>
<g><path style="opacity:0.992" fill="#005fa7" d="M 738.5,510.5 C 744.73,517.946 750.73,525.613 756.5,533.5C 710.901,556.651 662.567,570.318 611.5,574.5C 604.481,566.143 597.815,557.476 591.5,548.5C 643.511,546.915 692.511,534.249 738.5,510.5 Z"/></g>
<g><path style="opacity:0.993" fill="#005ba4" d="M 756.5,533.5 C 767.519,547.192 778.186,561.192 788.5,575.5C 744.475,599.175 697.808,614.842 648.5,622.5C 635.694,606.9 623.361,590.9 611.5,574.5C 662.567,570.318 710.901,556.651 756.5,533.5 Z"/></g>
<g><path style="opacity:0.991" fill="#0058a1" d="M 788.5,575.5 C 793.518,581.19 798.185,587.19 802.5,593.5C 762.557,615.639 720.223,631.306 675.5,640.5C 662.771,640.106 653.771,634.106 648.5,622.5C 697.808,614.842 744.475,599.175 788.5,575.5 Z"/></g>
<g><path style="opacity:0.968" fill="#0056a0" d="M 802.5,593.5 C 816.132,606.765 816.799,620.598 804.5,635C 801.205,637.434 797.538,639.101 793.5,640C 754.168,640.5 714.835,640.667 675.5,640.5C 720.223,631.306 762.557,615.639 802.5,593.5 Z"/></g>
<g><path style="opacity:0.97" fill="#0059ab" d="M 686.5,723.5 C 700.484,722.437 714.15,723.937 727.5,728C 739.648,733.481 747.481,742.648 751,755.5C 756.01,774.382 755.343,793.049 749,811.5C 742.789,824.71 732.622,833.21 718.5,837C 703.424,840.512 688.424,840.179 673.5,836C 651.013,824.705 641.013,806.372 643.5,781C 641.082,748.911 655.415,729.744 686.5,723.5 Z M 695.5,749.5 C 709.654,748.474 718.154,754.807 721,768.5C 722.944,778.233 722.611,787.9 720,797.5C 716.75,807.898 709.583,813.231 698.5,813.5C 687.285,813.998 680.118,808.998 677,798.5C 672.987,784.274 674.321,770.608 681,757.5C 685.134,753.354 689.968,750.687 695.5,749.5 Z"/></g>
<g><path style="opacity:0.97" fill="#0059ab" d="M 2093.5,723.5 C 2145.46,719.685 2167.63,743.685 2160,795.5C 2156.05,821.119 2141.21,835.619 2115.5,839C 2072.91,843.071 2050.91,823.737 2049.5,781C 2048.6,764.705 2053.1,750.205 2063,737.5C 2071.76,729.642 2081.92,724.976 2093.5,723.5 Z M 2102.5,749.5 C 2115.06,748.507 2123.22,753.84 2127,765.5C 2129,775.833 2129,786.167 2127,796.5C 2124.1,807.563 2116.94,813.23 2105.5,813.5C 2092.68,814.022 2085.18,808.022 2083,795.5C 2080.13,782.677 2081.46,770.344 2087,758.5C 2091.29,753.779 2096.46,750.779 2102.5,749.5 Z"/></g>
<g><path style="opacity:0.974" fill="#0059ab" d="M 92.5,725.5 C 113.5,725.5 134.5,725.5 155.5,725.5C 155.5,734.167 155.5,742.833 155.5,751.5C 137.497,751.333 119.497,751.5 101.5,752C 92.3142,754.168 87.1475,760.001 86,769.5C 85.3333,776.833 85.3333,784.167 86,791.5C 86.4753,799.635 90.3086,805.469 97.5,809C 106.494,809.5 115.494,809.666 124.5,809.5C 124.5,804.5 124.5,799.5 124.5,794.5C 115.167,794.5 105.833,794.5 96.5,794.5C 96.5,785.5 96.5,776.5 96.5,767.5C 116.167,767.5 135.833,767.5 155.5,767.5C 155.5,790.833 155.5,814.167 155.5,837.5C 134.831,837.667 114.164,837.5 93.5,837C 69.7008,833.966 56.2008,820.466 53,796.5C 50.282,777.807 53.282,760.14 62,743.5C 69.5924,733.062 79.7591,727.062 92.5,725.5 Z"/></g>
<g><path style="opacity:0.977" fill="#0059ab" d="M 205.5,725.5 C 228.502,725.333 251.502,725.5 274.5,726C 294.131,729.079 303.465,740.579 302.5,760.5C 303.517,774.972 297.85,785.805 285.5,793C 293.573,807.813 301.907,822.48 310.5,837C 299.167,837.667 287.833,837.667 276.5,837C 268.581,823.83 260.914,810.497 253.5,797C 247.509,796.501 241.509,796.334 235.5,796.5C 235.5,810.167 235.5,823.833 235.5,837.5C 225.5,837.5 215.5,837.5 205.5,837.5C 205.5,800.167 205.5,762.833 205.5,725.5 Z M 235.5,752.5 C 245.172,752.334 254.839,752.5 264.5,753C 270.109,753.108 272.776,755.941 272.5,761.5C 272.922,765.511 271.255,768.011 267.5,769C 256.839,769.5 246.172,769.667 235.5,769.5C 235.5,763.833 235.5,758.167 235.5,752.5 Z"/></g>
<g><path style="opacity:0.969" fill="#0059ab" d="M 352.5,725.5 C 362.5,725.5 372.5,725.5 382.5,725.5C 382.333,750.502 382.5,775.502 383,800.5C 385.002,810.479 391.169,814.813 401.5,813.5C 406.49,813.586 411.156,812.419 415.5,810C 417.068,807.696 418.235,805.196 419,802.5C 420.422,776.864 420.922,751.197 420.5,725.5C 430.5,725.5 440.5,725.5 450.5,725.5C 450.667,751.169 450.5,776.835 450,802.5C 448.161,824.339 436.327,836.173 414.5,838C 400.195,839.536 386.195,838.203 372.5,834C 359.255,827.363 352.755,816.529 353,801.5C 352.5,776.169 352.333,750.836 352.5,725.5 Z"/></g>
<g><path style="opacity:0.981" fill="#0059ab" d="M 503.5,725.5 C 527.205,725.062 550.872,725.562 574.5,727C 589.917,729.418 599.084,738.252 602,753.5C 606.548,782.255 594.381,798.088 565.5,801C 554.839,801.5 544.172,801.667 533.5,801.5C 533.5,813.5 533.5,825.5 533.5,837.5C 523.5,837.5 513.5,837.5 503.5,837.5C 503.5,800.167 503.5,762.833 503.5,725.5 Z M 533.5,752.5 C 543.898,752.101 554.232,752.601 564.5,754C 570.192,757.414 571.692,762.247 569,768.5C 567.363,770.81 565.196,772.31 562.5,773C 552.884,774.324 543.217,774.824 533.5,774.5C 533.5,767.167 533.5,759.833 533.5,752.5 Z"/></g>
<g><path style="opacity:0.972" fill="#0059ab" d="M 917.5,725.5 C 927.522,725.168 937.522,725.501 947.5,726.5C 962.879,763.473 978.545,800.306 994.5,837C 983.152,837.832 971.819,837.666 960.5,836.5C 957.696,828.754 954.696,821.088 951.5,813.5C 938.846,812.334 926.18,812.167 913.5,813C 910.371,820.763 907.371,828.596 904.5,836.5C 893.854,837.499 883.187,837.832 872.5,837.5C 887.5,800.167 902.5,762.833 917.5,725.5 Z M 931.5,762.5 C 934.865,769.572 937.865,776.906 940.5,784.5C 934.833,785.833 929.167,785.833 923.5,784.5C 926.744,777.352 929.411,770.018 931.5,762.5 Z"/></g>
<g><path style="opacity:0.973" fill="#0059ab" d="M 1054.5,725.5 C 1078.5,725.5 1102.5,725.5 1126.5,725.5C 1126.5,734.5 1126.5,743.5 1126.5,752.5C 1105.5,752.333 1084.5,752.5 1063.5,753C 1057.91,755.354 1056.07,759.521 1058,765.5C 1059.17,766.893 1060.67,767.727 1062.5,768C 1078.2,768.117 1093.87,768.784 1109.5,770C 1121.58,771.751 1128.75,778.584 1131,790.5C 1131.67,797.833 1131.67,805.167 1131,812.5C 1127.68,827.823 1118.18,835.989 1102.5,837C 1078.5,837.5 1054.5,837.667 1030.5,837.5C 1030.5,828.5 1030.5,819.5 1030.5,810.5C 1051.17,810.667 1071.84,810.5 1092.5,810C 1099.52,809.806 1102.02,806.306 1100,799.5C 1099.5,797.667 1098.33,796.5 1096.5,796C 1081.47,795.876 1066.47,795.21 1051.5,794C 1038.22,792.049 1030.05,784.549 1027,771.5C 1025.86,761.995 1026.52,752.662 1029,743.5C 1034.34,732.994 1042.84,726.994 1054.5,725.5 Z"/></g>
<g><path style="opacity:0.975" fill="#0059ab" d="M 1214.5,725.5 C 1231.83,725.5 1249.17,725.5 1266.5,725.5C 1266.5,734.167 1266.5,742.833 1266.5,751.5C 1250.44,751.062 1234.44,751.562 1218.5,753C 1211.6,755.28 1207.93,760.113 1207.5,767.5C 1227.17,767.5 1246.83,767.5 1266.5,767.5C 1266.5,776.167 1266.5,784.833 1266.5,793.5C 1246.83,793.5 1227.17,793.5 1207.5,793.5C 1206.81,801.976 1210.48,807.476 1218.5,810C 1234.46,811.385 1250.46,811.885 1266.5,811.5C 1266.5,820.167 1266.5,828.833 1266.5,837.5C 1249.83,837.667 1233.16,837.5 1216.5,837C 1193.77,834.272 1179.94,821.772 1175,799.5C 1172.18,782.811 1173.52,766.478 1179,750.5C 1186.29,735.704 1198.13,727.371 1214.5,725.5 Z"/></g>
<g><path style="opacity:0.974" fill="#0059ab" d="M 1351.5,725.5 C 1372.5,725.5 1393.5,725.5 1414.5,725.5C 1414.5,734.167 1414.5,742.833 1414.5,751.5C 1396.5,751.333 1378.5,751.5 1360.5,752C 1352.78,753.386 1347.95,757.886 1346,765.5C 1342.52,778.52 1343.52,791.187 1349,803.5C 1350.94,806.106 1353.44,807.939 1356.5,809C 1365.49,809.5 1374.49,809.666 1383.5,809.5C 1383.5,804.5 1383.5,799.5 1383.5,794.5C 1374.17,794.5 1364.83,794.5 1355.5,794.5C 1355.5,785.5 1355.5,776.5 1355.5,767.5C 1375.17,767.5 1394.83,767.5 1414.5,767.5C 1414.5,790.833 1414.5,814.167 1414.5,837.5C 1393.83,837.667 1373.16,837.5 1352.5,837C 1328.85,834.355 1315.35,821.188 1312,797.5C 1308.75,777.071 1312.42,758.071 1323,740.5C 1330.69,731.908 1340.19,726.908 1351.5,725.5 Z"/></g>
<g><path style="opacity:0.972" fill="#0059ab" d="M 1464.5,725.5 C 1474.5,725.5 1484.5,725.5 1494.5,725.5C 1494.33,751.502 1494.5,777.502 1495,803.5C 1498.24,811.044 1504.07,814.378 1512.5,813.5C 1516.99,813.462 1521.32,812.629 1525.5,811C 1527.89,809.048 1529.39,806.548 1530,803.5C 1531.45,777.543 1531.95,751.543 1531.5,725.5C 1541.5,725.5 1551.5,725.5 1561.5,725.5C 1561.67,752.169 1561.5,778.835 1561,805.5C 1558.78,822.711 1549.28,833.211 1532.5,837C 1515.11,840 1498.11,838.666 1481.5,833C 1471.63,827.436 1466.13,818.936 1465,807.5C 1464.5,780.169 1464.33,752.835 1464.5,725.5 Z"/></g>
<g><path style="opacity:0.977" fill="#0059ab" d="M 1614.5,725.5 C 1639.2,725.059 1663.87,725.559 1688.5,727C 1704.95,731.978 1712.62,743.145 1711.5,760.5C 1712.52,774.972 1706.85,785.805 1694.5,793C 1702.57,807.813 1710.91,822.48 1719.5,837C 1708.17,837.667 1696.83,837.667 1685.5,837C 1677.58,823.83 1669.91,810.497 1662.5,797C 1656.51,796.501 1650.51,796.334 1644.5,796.5C 1644.5,810.167 1644.5,823.833 1644.5,837.5C 1634.5,837.5 1624.5,837.5 1614.5,837.5C 1614.5,800.167 1614.5,762.833 1614.5,725.5 Z M 1644.5,752.5 C 1654.17,752.334 1663.84,752.5 1673.5,753C 1679.11,753.108 1681.78,755.941 1681.5,761.5C 1681.92,765.511 1680.26,768.011 1676.5,769C 1665.84,769.5 1655.17,769.667 1644.5,769.5C 1644.5,763.833 1644.5,758.167 1644.5,752.5 Z"/></g>
<g><path style="opacity:0.972" fill="#0059ab" d="M 1792.5,725.5 C 1802.19,725.168 1811.86,725.502 1821.5,726.5C 1837.17,763.167 1852.83,799.833 1868.5,836.5C 1857.19,837.499 1845.85,837.832 1834.5,837.5C 1831.93,829.187 1828.93,821.02 1825.5,813C 1812.83,812.333 1800.17,812.333 1787.5,813C 1784.41,820.777 1781.41,828.611 1778.5,836.5C 1767.85,837.499 1757.19,837.832 1746.5,837.5C 1761.28,799.945 1776.61,762.612 1792.5,725.5 Z M 1805.5,763.5 C 1809.55,770.291 1812.55,777.624 1814.5,785.5C 1808.82,785.666 1803.16,785.499 1797.5,785C 1800.46,777.942 1803.13,770.776 1805.5,763.5 Z"/></g>
<g><path style="opacity:0.971" fill="#0059ab" d="M 1905.5,725.5 C 1926.84,725.333 1948.17,725.5 1969.5,726C 1990.94,728.433 2003.77,740.267 2008,761.5C 2010.75,779.485 2009.41,797.152 2004,814.5C 1996.41,828.395 1984.58,835.895 1968.5,837C 1947.5,837.5 1926.5,837.667 1905.5,837.5C 1905.5,800.167 1905.5,762.833 1905.5,725.5 Z M 1936.5,751.5 C 1944.51,751.334 1952.51,751.5 1960.5,752C 1968.96,752.134 1974.13,756.301 1976,764.5C 1977.97,775.838 1977.97,787.171 1976,798.5C 1974.71,805.455 1970.54,809.289 1963.5,810C 1954.51,810.5 1945.51,810.666 1936.5,810.5C 1936.5,790.833 1936.5,771.167 1936.5,751.5 Z"/></g>
<g><path style="opacity:0.976" fill="#0059ab" d="M 2206.5,725.5 C 2229.5,725.333 2252.5,725.5 2275.5,726C 2295.35,728.825 2305.01,740.325 2304.5,760.5C 2305.22,775.064 2299.22,785.73 2286.5,792.5C 2294.83,807.167 2303.17,821.833 2311.5,836.5C 2300.17,837.833 2288.83,837.833 2277.5,836.5C 2270.42,823.338 2263.09,810.338 2255.5,797.5C 2249.54,796.504 2243.54,796.171 2237.5,796.5C 2237.5,810.167 2237.5,823.833 2237.5,837.5C 2227.5,837.5 2217.5,837.5 2207.5,837.5C 2207.67,800.16 2207.34,762.827 2206.5,725.5 Z M 2237.5,752.5 C 2246.84,752.334 2256.17,752.5 2265.5,753C 2273.65,754.756 2276.15,759.589 2273,767.5C 2271.93,768.191 2270.77,768.691 2269.5,769C 2258.84,769.5 2248.17,769.667 2237.5,769.5C 2237.5,763.833 2237.5,758.167 2237.5,752.5 Z"/></g>
<g><path style="opacity:0.953" fill="#00aeef" d="M 707.5,899.5 C 716.051,897.933 720.717,901.433 721.5,910C 715.52,931.044 711.854,952.544 710.5,974.5C 720.208,975.397 729.875,976.564 739.5,978C 743.721,981.822 744.554,986.322 742,991.5C 741.097,992.701 739.931,993.535 738.5,994C 729.155,994.517 719.822,994.35 710.5,993.5C 710.936,1006.66 712.603,1019.66 715.5,1032.5C 712.855,1041.87 707.355,1043.87 699,1038.5C 697.79,1034.91 696.29,1031.58 694.5,1028.5C 683.803,1030.9 673.47,1034.4 663.5,1039C 648.838,1043.01 638.338,1038.18 632,1024.5C 629.668,1017.67 628.168,1010.67 627.5,1003.5C 625.011,1003.3 622.677,1003.8 620.5,1005C 609.074,1013.76 598.241,1023.26 588,1033.5C 585.557,1041.14 580.39,1044.3 572.5,1043C 569.943,1042.31 568.109,1040.81 567,1038.5C 566.667,1026.17 566.333,1013.83 566,1001.5C 563.734,1002.96 561.234,1003.79 558.5,1004C 561.207,1011.5 560.374,1018.66 556,1025.5C 537.971,1047.29 515.638,1053.62 489,1044.5C 479.31,1048.64 469.143,1051.14 458.5,1052C 441.557,1054.17 424.891,1052.84 408.5,1048C 395.371,1041.26 388.704,1030.43 388.5,1015.5C 389.642,999.592 394.475,984.926 403,971.5C 416.593,950.573 434.093,933.74 455.5,921C 468.04,914.007 473.873,917.507 473,931.5C 471.939,934.562 470.106,937.062 467.5,939C 463.902,939.154 460.569,940.154 457.5,942C 439.522,953.643 425.355,968.81 415,987.5C 409.801,998.289 407.801,1009.62 409,1021.5C 410.556,1026.88 414.056,1030.38 419.5,1032C 439.797,1036.01 459.797,1034.84 479.5,1028.5C 479.205,1005.56 489.205,989.063 509.5,979C 515.052,977.804 520.219,978.637 525,981.5C 531.698,980.443 537.865,981.943 543.5,986C 549.5,986.333 555.5,986.667 561.5,987C 562.609,987.638 563.775,988.138 565,988.5C 569.675,983.283 575.175,982.283 581.5,985.5C 582.584,986.665 583.417,987.998 584,989.5C 584.333,996.833 584.667,1004.17 585,1011.5C 593.246,1003.25 602.079,995.75 611.5,989C 635.371,977.54 647.538,985.04 648,1011.5C 648.526,1019.71 652.693,1022.88 660.5,1021C 670.927,1015.69 681.927,1012.52 693.5,1011.5C 693.167,1005.5 692.833,999.5 692.5,993.5C 687.489,993.666 682.489,993.499 677.5,993C 674.334,991.334 673,988.668 673.5,985C 673.483,980.679 675.483,977.679 679.5,976C 683.821,975.501 688.154,975.334 692.5,975.5C 693.447,956.977 695.78,938.643 699.5,920.5C 698.456,918.232 698.289,915.899 699,913.5C 701.377,909.71 703.377,905.71 705,901.5C 705.995,900.934 706.828,900.267 707.5,899.5 Z M 511.5,998.5 C 512.854,1000.7 514.854,1002.2 517.5,1003C 524.167,1003.33 530.833,1003.67 537.5,1004C 541.533,1007.17 542.367,1011 540,1015.5C 530.567,1028.2 518.067,1033.03 502.5,1030C 498.25,1025.82 497.417,1020.99 500,1015.5C 502.105,1008.58 505.938,1002.91 511.5,998.5 Z"/></g>
<g><path style="opacity:0.922" fill="#00aeef" d="M 771.5,936.5 C 786.26,936.693 791.094,943.693 786,957.5C 780.146,963.077 773.646,963.91 766.5,960C 759.132,950.265 760.799,942.432 771.5,936.5 Z"/></g>
<g><path style="opacity:0.925" fill="#00aeef" d="M 1445.5,936.5 C 1460.9,936.96 1465.4,944.293 1459,958.5C 1453.21,963.18 1447.04,963.68 1440.5,960C 1432.8,950.033 1434.46,942.199 1445.5,936.5 Z"/></g>
<g><path style="opacity:0.946" fill="#00aeef" d="M 1392.5,955.5 C 1397.51,955.334 1402.51,955.501 1407.5,956C 1415.35,959.224 1417.51,964.724 1414,972.5C 1413.17,973.333 1412.33,974.167 1411.5,975C 1394.51,972.001 1379.51,976.334 1366.5,988C 1374.5,992.667 1382.5,997.333 1390.5,1002C 1397.58,1007.38 1400.91,1014.55 1400.5,1023.5C 1400.08,1034.28 1396.24,1043.61 1389,1051.5C 1382.66,1059.18 1375.16,1065.34 1366.5,1070C 1359.33,1073.37 1352.33,1073.03 1345.5,1069C 1341.25,1064.45 1340.42,1059.29 1343,1053.5C 1347.76,1049.65 1352.6,1049.65 1357.5,1053.5C 1370.07,1047.11 1378.4,1037.28 1382.5,1024C 1382.59,1021.19 1381.59,1018.85 1379.5,1017C 1370.94,1011.55 1361.94,1006.89 1352.5,1003C 1345.78,997.495 1343.94,990.661 1347,982.5C 1351.92,975.573 1358.09,970.073 1365.5,966C 1374.19,961.387 1383.19,957.887 1392.5,955.5 Z"/></g>
<g><path style="opacity:0.951" fill="#00aeef" d="M 1517.5,961.5 C 1537.47,958.967 1545.63,967.633 1542,987.5C 1533.78,1005.86 1519.62,1016.53 1499.5,1019.5C 1499.3,1021.39 1499.96,1022.89 1501.5,1024C 1509.75,1026.8 1518.09,1026.8 1526.5,1024C 1536.24,1020.86 1545.91,1017.53 1555.5,1014C 1556.08,1003.19 1556.92,992.353 1558,981.5C 1560.9,976.845 1565.06,975.345 1570.5,977C 1572.29,977.785 1573.79,978.951 1575,980.5C 1575.33,990.167 1575.67,999.833 1576,1009.5C 1582.17,1002.67 1588.33,995.833 1594.5,989C 1602.25,982.994 1610.58,981.994 1619.5,986C 1620.33,986.833 1621.17,987.667 1622,988.5C 1624.68,994.53 1627.35,1000.53 1630,1006.5C 1638.37,996.448 1648.21,988.281 1659.5,982C 1667.58,977.984 1674.75,979.15 1681,985.5C 1684.28,993.273 1686.94,1001.27 1689,1009.5C 1690.33,1012.83 1692.16,1015.83 1694.5,1018.5C 1697.1,1019.56 1699.77,1019.73 1702.5,1019C 1711.33,1016.04 1720.33,1013.88 1729.5,1012.5C 1730.52,1003.2 1731.19,993.866 1731.5,984.5C 1722.05,984.877 1717.55,980.544 1718,971.5C 1720.62,966.439 1724.79,964.439 1730.5,965.5C 1753.48,966.495 1775.15,972.328 1795.5,983C 1806.84,991.36 1809.34,1001.86 1803,1014.5C 1800.13,1017.7 1796.96,1020.54 1793.5,1023C 1783.68,1027.41 1774.01,1032.08 1764.5,1037C 1758.35,1039.43 1752.52,1038.93 1747,1035.5C 1745.36,1050.78 1744.69,1066.11 1745,1081.5C 1749.65,1087.97 1749.15,1094.14 1743.5,1100C 1734.68,1104.67 1729.18,1102.17 1727,1092.5C 1726.36,1072.8 1726.86,1053.14 1728.5,1033.5C 1728.17,1032.5 1727.83,1031.5 1727.5,1030.5C 1719.42,1032.35 1711.42,1034.52 1703.5,1037C 1690.16,1039.91 1680.33,1035.41 1674,1023.5C 1671.07,1017.05 1668.74,1010.38 1667,1003.5C 1666.48,1002.48 1665.65,1001.82 1664.5,1001.5C 1660.54,1003.15 1656.87,1005.31 1653.5,1008C 1646.47,1014.7 1639.8,1021.7 1633.5,1029C 1627.31,1032.58 1621.81,1031.74 1617,1026.5C 1614.27,1020.31 1611.94,1013.98 1610,1007.5C 1609.38,1005.88 1608.38,1004.55 1607,1003.5C 1595.25,1014.75 1584.75,1027.09 1575.5,1040.5C 1570.72,1045.08 1565.72,1045.41 1560.5,1041.5C 1558.48,1038.62 1556.81,1035.62 1555.5,1032.5C 1536.81,1041.94 1517.14,1045.11 1496.5,1042C 1493.55,1041.19 1490.89,1039.86 1488.5,1038C 1486.65,1035.44 1484.49,1033.27 1482,1031.5C 1469.96,1035.73 1457.8,1039.57 1445.5,1043C 1432.78,1046.22 1424.28,1041.72 1420,1029.5C 1418.98,1025.24 1418.48,1020.9 1418.5,1016.5C 1419.23,1006.78 1420.4,997.117 1422,987.5C 1426.6,976.801 1433.6,974.801 1443,981.5C 1443.67,984.167 1443.67,986.833 1443,989.5C 1436.92,1000.66 1435.76,1012.16 1439.5,1024C 1442.17,1024.67 1444.83,1024.67 1447.5,1024C 1458.25,1019.53 1469.25,1015.86 1480.5,1013C 1485.17,990.108 1497.5,972.941 1517.5,961.5 Z M 1520.5,979.5 C 1521.83,979.5 1523.17,979.5 1524.5,979.5C 1524.74,982.794 1523.91,985.794 1522,988.5C 1516.98,993.176 1511.31,996.842 1505,999.5C 1507.99,991.321 1513.15,984.655 1520.5,979.5 Z M 1749.5,985.5 C 1761.28,988.373 1772.62,992.539 1783.5,998C 1787.5,1001 1787.5,1004 1783.5,1007C 1775.71,1010.39 1768.05,1014.06 1760.5,1018C 1757.5,1018.33 1754.5,1018.67 1751.5,1019C 1750.07,1019.47 1748.9,1020.3 1748,1021.5C 1748.12,1009.5 1748.62,997.497 1749.5,985.5 Z"/></g>
<g><path style="opacity:0.95" fill="#00aeef" d="M 1916.5,961.5 C 1936.82,959.421 1944.65,968.421 1940,988.5C 1936.31,998.055 1930.14,1005.55 1921.5,1011C 1913.92,1015.25 1905.92,1018.42 1897.5,1020.5C 1898,1021.5 1898.5,1022.5 1899,1023.5C 1905.91,1026.91 1913.08,1027.41 1920.5,1025C 1932.6,1021.45 1944.6,1017.61 1956.5,1013.5C 1964.52,1015.21 1967.02,1019.87 1964,1027.5C 1947.11,1036.96 1928.94,1042.29 1909.5,1043.5C 1891.25,1045.07 1880.92,1036.9 1878.5,1019C 1879.18,1013.43 1880.18,1007.93 1881.5,1002.5C 1879.21,1002.28 1877.05,1001.61 1875,1000.5C 1860.89,1003.56 1848.22,1009.56 1837,1018.5C 1834.34,1023.12 1832.67,1028.12 1832,1033.5C 1827.31,1038.3 1822.31,1038.64 1817,1034.5C 1815.96,1032.29 1815.29,1029.95 1815,1027.5C 1814.87,1016.14 1814.7,1004.8 1814.5,993.5C 1815.43,989.626 1816.93,985.96 1819,982.5C 1824.27,978.353 1829.27,978.686 1834,983.5C 1834.78,984.729 1835.28,986.062 1835.5,987.5C 1834.45,991.477 1833.95,995.477 1834,999.5C 1848.7,988.487 1865.2,983.321 1883.5,984C 1885.59,984.792 1887.42,985.959 1889,987.5C 1895.18,975.479 1904.35,966.812 1916.5,961.5 Z M 1918.5,979.5 C 1920.66,979.116 1922.33,979.783 1923.5,981.5C 1919.56,991.12 1912.56,996.953 1902.5,999C 1906.55,991.378 1911.88,984.878 1918.5,979.5 Z"/></g>
<g><path style="opacity:0.951" fill="#00aeef" d="M 1035.5,965.5 C 1061.86,965.089 1086.52,971.256 1109.5,984C 1122.82,996.287 1122.82,1008.62 1109.5,1021C 1097.74,1027.21 1085.74,1032.88 1073.5,1038C 1068.56,1039.12 1064.06,1038.29 1060,1035.5C 1059.67,1035.83 1059.33,1036.17 1059,1036.5C 1057.97,1051.49 1057.64,1066.49 1058,1081.5C 1062.45,1087.02 1062.45,1092.69 1058,1098.5C 1049.49,1105.01 1043.49,1103.34 1040,1093.5C 1039.47,1057.09 1040.97,1020.75 1044.5,984.5C 1029.8,983.441 1026.8,977.108 1035.5,965.5 Z M 1062.5,986.5 C 1075.8,988.321 1087.97,992.988 1099,1000.5C 1099.67,1001.83 1099.67,1003.17 1099,1004.5C 1090.64,1009.18 1082.14,1013.68 1073.5,1018C 1068.26,1017.56 1063.76,1019.06 1060,1022.5C 1060.8,1010.57 1061.63,998.573 1062.5,986.5 Z"/></g>
<g><path style="opacity:0.947" fill="#00aeef" d="M 858.5,969.5 C 863.844,969.334 869.177,969.501 874.5,970C 880.139,970.971 882.805,974.304 882.5,980C 882.813,986.019 879.98,989.185 874,989.5C 870.381,987.793 866.547,987.293 862.5,988C 851.823,991.084 842.656,996.584 835,1004.5C 832.192,1008.14 830.025,1012.14 828.5,1016.5C 828.667,1017.17 828.833,1017.83 829,1018.5C 838.605,1012.2 848.939,1007.53 860,1004.5C 866.442,1004.38 870.442,1007.38 872,1013.5C 877.24,1034.06 876.574,1054.4 870,1074.5C 865.061,1087.44 856.561,1097.27 844.5,1104C 833.63,1105.47 829.463,1100.97 832,1090.5C 852.447,1076.53 860.447,1057.2 856,1032.5C 855.86,1029.96 855.194,1027.62 854,1025.5C 845.484,1030.67 836.651,1035.17 827.5,1039C 819.058,1040.91 812.391,1038.41 807.5,1031.5C 797.204,1035.1 786.87,1038.6 776.5,1042C 754.839,1047.52 744.172,1039.02 744.5,1016.5C 745.342,1007.12 746.508,997.792 748,988.5C 750.924,978.789 757.09,975.622 766.5,979C 768.726,980.62 770.06,982.786 770.5,985.5C 764.504,996.814 762.338,1008.81 764,1021.5C 764.374,1022.42 764.874,1023.25 765.5,1024C 768.167,1024.67 770.833,1024.67 773.5,1024C 785.174,1019.05 797.174,1015.22 809.5,1012.5C 815.037,997.632 824.703,986.132 838.5,978C 844.92,974.282 851.586,971.449 858.5,969.5 Z"/></g>
<g><path style="opacity:0.956" fill="#00aeef" d="M 911.5,978.5 C 920.356,979.487 929.023,980.654 937.5,982C 940.446,982.806 943.112,984.139 945.5,986C 951.5,986.333 957.5,986.667 963.5,987C 969.095,989.354 970.928,993.521 969,999.5C 967.151,1002.68 964.318,1004.18 960.5,1004C 963.012,1011.46 962.179,1018.62 958,1025.5C 939.749,1047.59 917.249,1053.76 890.5,1044C 887.567,1041.74 885.4,1038.9 884,1035.5C 879.264,1009.64 888.431,990.642 911.5,978.5 Z M 913.5,998.5 C 914.854,1000.7 916.854,1002.2 919.5,1003C 926.167,1003.33 932.833,1003.67 939.5,1004C 943.533,1007.17 944.367,1011 942,1015.5C 932.567,1028.2 920.067,1033.03 904.5,1030C 900.25,1025.82 899.417,1020.99 902,1015.5C 904.105,1008.58 907.938,1002.91 913.5,998.5 Z"/></g>
<g><path style="opacity:0.956" fill="#00aeef" d="M 1150.5,978.5 C 1159.36,979.487 1168.02,980.654 1176.5,982C 1179.45,982.806 1182.11,984.139 1184.5,986C 1190.5,986.333 1196.5,986.667 1202.5,987C 1208.83,990.581 1210.16,995.581 1206.5,1002C 1204.2,1002.9 1201.86,1003.73 1199.5,1004.5C 1201.11,1011.01 1200.61,1017.34 1198,1023.5C 1180.6,1046.52 1158.1,1053.69 1130.5,1045C 1121.43,1036.28 1118.6,1025.78 1122,1013.5C 1125.87,997.142 1135.37,985.476 1150.5,978.5 Z M 1151.5,998.5 C 1153.4,1000.46 1155.73,1001.96 1158.5,1003C 1165.17,1003.33 1171.83,1003.67 1178.5,1004C 1182.25,1007.29 1183.08,1011.13 1181,1015.5C 1171.38,1028.07 1158.88,1032.9 1143.5,1030C 1139.06,1025.52 1138.23,1020.36 1141,1014.5C 1143.51,1008.49 1147.01,1003.16 1151.5,998.5 Z"/></g>
<g><path style="opacity:0.946" fill="#00aeef" d="M 1220.5,979.5 C 1225.25,979.136 1229.08,980.802 1232,984.5C 1232.03,989.576 1231.7,994.576 1231,999.5C 1245.7,988.487 1262.2,983.321 1280.5,984C 1287.54,985.916 1290.04,990.416 1288,997.5C 1283.85,1004.22 1278.52,1005.22 1272,1000.5C 1257.08,1003.57 1244.08,1010.24 1233,1020.5C 1231.35,1024.75 1230.02,1029.08 1229,1033.5C 1223.27,1038.99 1217.94,1038.65 1213,1032.5C 1212.79,1019.64 1212.29,1006.81 1211.5,994C 1212.85,990.123 1214.35,986.29 1216,982.5C 1217.41,981.219 1218.91,980.219 1220.5,979.5 Z"/></g>
</svg>
